<svg width="24" height="24" viewBox="0 0 24 24" fill="none" xmlns="http://www.w3.org/2000/svg">
  <path d="M15.5303 4.53033C15.8232 4.23744 15.8232 3.76256 15.5303 3.46967C15.2374 3.17678 14.7626 3.17678 14.4697 3.46967L15.5303 4.53033ZM7 12L6.46967 11.4697C6.17678 11.7626 6.17678 12.2374 6.46967 12.5303L7 12ZM14.4697 20.5303C14.7626 20.8232 15.2374 20.8232 15.5303 20.5303C15.8232 20.2374 15.8232 19.7626 15.5303 19.4697L14.4697 20.5303ZM14.4697 3.46967L6.46967 11.4697L7.53033 12.5303L15.5303 4.53033L14.4697 3.46967ZM6.46967 12.5303L14.4697 20.5303L15.5303 19.4697L7.53033 11.4697L6.46967 12.5303Z" fill="currentColor" />
</svg>