<svg width="24" height="24" viewBox="0 0 24 24" fill="none" xmlns="http://www.w3.org/2000/svg">
  <path d="M8.46967 19.4697C8.17678 19.7626 8.17678 20.2374 8.46967 20.5303C8.76256 20.8232 9.23744 20.8232 9.53033 20.5303L8.46967 19.4697ZM17 12L17.5303 12.5303C17.671 12.3897 17.75 12.1989 17.75 12C17.75 11.8011 17.671 11.6103 17.5303 11.4697L17 12ZM9.53033 3.46967C9.23744 3.17678 8.76256 3.17678 8.46967 3.46967C8.17678 3.76256 8.17678 4.23744 8.46967 4.53033L9.53033 3.46967ZM9.53033 20.5303L17.5303 12.5303L16.4697 11.4697L8.46967 19.4697L9.53033 20.5303ZM17.5303 11.4697L9.53033 3.46967L8.46967 4.53033L16.4697 12.5303L17.5303 11.4697Z" fill="currentColor" />
</svg>