<svg width="24" height="24" viewBox="0 0 24 24" fill="none" xmlns="http://www.w3.org/2000/svg">
  <path d="M19.75 4C19.75 3.58579 19.4142 3.25 19 3.25C18.5858 3.25 18.25 3.58579 18.25 4H19.75ZM18.25 20C18.25 20.4142 18.5858 20.75 19 20.75C19.4142 20.75 19.75 20.4142 19.75 20H18.25ZM12.75 4C12.75 3.58579 12.4142 3.25 12 3.25C11.5858 3.25 11.25 3.58579 11.25 4H12.75ZM4.25 20C4.25 20.4142 4.58579 20.75 5 20.75C5.41421 20.75 5.75 20.4142 5.75 20H4.25ZM18.25 4V10H19.75V4H18.25ZM18.25 14V20H19.75V14H18.25ZM11.25 4V16H12.75V4H11.25ZM4.25 8V20H5.75V8H4.25ZM6.25 6C6.25 6.69036 5.69036 7.25 5 7.25V8.75C6.51878 8.75 7.75 7.51878 7.75 6H6.25ZM5 7.25C4.30964 7.25 3.75 6.69036 3.75 6H2.25C2.25 7.51878 3.48122 8.75 5 8.75V7.25ZM3.75 6C3.75 5.30964 4.30964 4.75 5 4.75V3.25C3.48122 3.25 2.25 4.48122 2.25 6H3.75ZM5 4.75C5.69036 4.75 6.25 5.30964 6.25 6H7.75C7.75 4.48122 6.51878 3.25 5 3.25V4.75ZM13.25 18C13.25 18.6904 12.6904 19.25 12 19.25V20.75C13.5188 20.75 14.75 19.5188 14.75 18H13.25ZM12 19.25C11.3096 19.25 10.75 18.6904 10.75 18H9.25C9.25 19.5188 10.4812 20.75 12 20.75V19.25ZM10.75 18C10.75 17.3096 11.3096 16.75 12 16.75V15.25C10.4812 15.25 9.25 16.4812 9.25 18H10.75ZM12 16.75C12.6904 16.75 13.25 17.3096 13.25 18H14.75C14.75 16.4812 13.5188 15.25 12 15.25V16.75ZM20.25 12C20.25 12.6904 19.6904 13.25 19 13.25V14.75C20.5188 14.75 21.75 13.5188 21.75 12H20.25ZM19 13.25C18.3096 13.25 17.75 12.6904 17.75 12H16.25C16.25 13.5188 17.4812 14.75 19 14.75V13.25ZM17.75 12C17.75 11.3096 18.3096 10.75 19 10.75V9.25C17.4812 9.25 16.25 10.4812 16.25 12H17.75ZM19 10.75C19.6904 10.75 20.25 11.3096 20.25 12H21.75C21.75 10.4812 20.5188 9.25 19 9.25V10.75Z" fill="currentColor" />
</svg>