<svg width="24" height="24" viewBox="0 0 24 24" fill="none" xmlns="http://www.w3.org/2000/svg">
  <path d="M14 3.25C13.5858 3.25 13.25 3.58579 13.25 4C13.25 4.41421 13.5858 4.75 14 4.75V3.25ZM17.5 4V4.75V4ZM17.5 20V20.75V20ZM14 19.25C13.5858 19.25 13.25 19.5858 13.25 20C13.25 20.4142 13.5858 20.75 14 20.75V19.25ZM15 12L15.5303 12.5303C15.671 12.3897 15.75 12.1989 15.75 12C15.75 11.8011 15.671 11.6103 15.5303 11.4697L15 12ZM3 11.25C2.58579 11.25 2.25 11.5858 2.25 12C2.25 12.4142 2.58579 12.75 3 12.75L3 11.25ZM10.4697 15.4697C10.1768 15.7626 10.1768 16.2374 10.4697 16.5303C10.7626 16.8232 11.2374 16.8232 11.5303 16.5303L10.4697 15.4697ZM11.5303 7.46967C11.2374 7.17678 10.7626 7.17678 10.4697 7.46967C10.1768 7.76256 10.1768 8.23744 10.4697 8.53033L11.5303 7.46967ZM14 4.75L17.5 4.75V3.25L14 3.25V4.75ZM17.5 19.25H14V20.75H17.5V19.25ZM17.5 4.75C18.0809 4.75 18.4501 4.93116 18.7205 5.20982C19.0145 5.51273 19.25 5.99251 19.4182 6.6786C19.7593 8.06959 19.75 9.96116 19.75 12H21.25C21.25 10.0388 21.2696 7.93041 20.8751 6.3214C20.6755 5.50749 20.3522 4.73727 19.7969 4.16518C19.2182 3.56884 18.4479 3.25 17.5 3.25V4.75ZM19.75 12C19.75 14.0388 19.7593 15.9304 19.4182 17.3214C19.25 18.0075 19.0145 18.4873 18.7205 18.7902C18.4501 19.0688 18.0809 19.25 17.5 19.25V20.75C18.4479 20.75 19.2182 20.4312 19.797 19.8348C20.3522 19.2627 20.6755 18.4925 20.8751 17.6786C21.2696 16.0696 21.25 13.9612 21.25 12H19.75ZM15 11.25L3 11.25L3 12.75L15 12.75V11.25ZM11.5303 16.5303L15.5303 12.5303L14.4697 11.4697L10.4697 15.4697L11.5303 16.5303ZM15.5303 11.4697L11.5303 7.46967L10.4697 8.53033L14.4697 12.5303L15.5303 11.4697Z" fill="currentColor" />
</svg>