<svg width="24" height="24" viewBox="0 0 24 24" fill="none" xmlns="http://www.w3.org/2000/svg">
  <path d="M13.4466 3.38559L13.6594 2.66643L13.4466 3.38559ZM12.4592 5.00063L13.1267 4.65861L12.4592 5.00063ZM4.67199 18.7967L5.14309 18.2131L4.67199 18.7967ZM5.45256 17.1452L5.51832 17.8923L5.45256 17.1452ZM20.75 12C20.75 7.58922 17.7554 3.8788 13.6594 2.66643L13.2337 4.10475C16.7323 5.1403 19.25 8.29423 19.25 12H20.75ZM11 21.75C16.5411 21.75 20.75 17.3776 20.75 12H19.25C19.25 16.5653 15.6966 20.25 11 20.25V21.75ZM4.20089 19.3803C6.04425 20.8683 8.48967 21.75 11 21.75V20.25C8.82962 20.25 6.71739 19.484 5.14309 18.2131L4.20089 19.3803ZM5.51832 17.8923C11.8022 17.3393 15.986 10.2386 13.1267 4.65861L11.7917 5.34265C14.1333 9.91235 10.6816 15.9321 5.38681 16.3981L5.51832 17.8923ZM13.6594 2.66643C12.8318 2.42145 12.1513 2.84727 11.8227 3.42685C11.5118 3.97515 11.4677 4.7103 11.7917 5.34265L13.1267 4.65861C13.0401 4.48959 13.058 4.28944 13.1276 4.16667C13.159 4.11121 13.1858 4.09784 13.1867 4.09743C13.1868 4.09737 13.1865 4.09727 13.1886 4.09713C13.191 4.09697 13.2051 4.09627 13.2337 4.10475L13.6594 2.66643ZM5.14309 18.2131C5.10082 18.179 5.11008 18.1693 5.11315 18.1875C5.11463 18.1964 5.10839 18.178 5.13224 18.1315C5.18593 18.0269 5.32936 17.909 5.51832 17.8923L5.38681 16.3981C4.68152 16.4602 4.08541 16.8861 3.79775 17.4466C3.65093 17.7326 3.57355 18.0771 3.63389 18.4361C3.69581 18.8046 3.8939 19.1325 4.20089 19.3803L5.14309 18.2131Z" fill="currentColor" />
</svg>