<svg width="24" height="24" viewBox="0 0 24 24" fill="none" xmlns="http://www.w3.org/2000/svg">
<path d="M4 4.25C3.58579 4.25 3.25 4.58579 3.25 5C3.25 5.41421 3.58579 5.75 4 5.75L4 4.25ZM10 5H10.75H10ZM20 5.75C20.4142 5.75 20.75 5.41421 20.75 5C20.75 4.58579 20.4142 4.25 20 4.25V5.75ZM4 11.25C3.58579 11.25 3.25 11.5858 3.25 12C3.25 12.4142 3.58579 12.75 4 12.75V11.25ZM16 12H16.75H16ZM20 19.75C20.4142 19.75 20.75 19.4142 20.75 19C20.75 18.5858 20.4142 18.25 20 18.25V19.75ZM6 17V17.75V17ZM6 21V21.75V21ZM4 19H4.75H4ZM18 10V10.75V10ZM20 12H20.75H20ZM18 14V14.75V14ZM12 3V3.75V3ZM12 7V7.75V7ZM4 5.75L10 5.75V4.25L4 4.25L4 5.75ZM14 5.75L20 5.75V4.25L14 4.25V5.75ZM4 12.75H16V11.25H4V12.75ZM8 19.75H20V18.25H8V19.75ZM6 17.75C6.69036 17.75 7.25 18.3096 7.25 19H8.75C8.75 17.4812 7.51878 16.25 6 16.25V17.75ZM7.25 19C7.25 19.6904 6.69036 20.25 6 20.25V21.75C7.51878 21.75 8.75 20.5188 8.75 19H7.25ZM6 20.25C5.30964 20.25 4.75 19.6904 4.75 19H3.25C3.25 20.5188 4.48122 21.75 6 21.75V20.25ZM4.75 19C4.75 18.3096 5.30964 17.75 6 17.75V16.25C4.48122 16.25 3.25 17.4812 3.25 19H4.75ZM18 10.75C18.6904 10.75 19.25 11.3096 19.25 12H20.75C20.75 10.4812 19.5188 9.25 18 9.25V10.75ZM19.25 12C19.25 12.6904 18.6904 13.25 18 13.25V14.75C19.5188 14.75 20.75 13.5188 20.75 12H19.25ZM18 13.25C17.3096 13.25 16.75 12.6904 16.75 12H15.25C15.25 13.5188 16.4812 14.75 18 14.75V13.25ZM16.75 12C16.75 11.3096 17.3096 10.75 18 10.75V9.25C16.4812 9.25 15.25 10.4812 15.25 12H16.75ZM12 3.75C12.6904 3.75 13.25 4.30964 13.25 5H14.75C14.75 3.48122 13.5188 2.25 12 2.25V3.75ZM13.25 5C13.25 5.69036 12.6904 6.25 12 6.25V7.75C13.5188 7.75 14.75 6.51878 14.75 5H13.25ZM12 6.25C11.3096 6.25 10.75 5.69036 10.75 5H9.25C9.25 6.51878 10.4812 7.75 12 7.75V6.25ZM10.75 5C10.75 4.30964 11.3096 3.75 12 3.75V2.25C10.4812 2.25 9.25 3.48122 9.25 5H10.75Z" fill="currentColor"/>
</svg>
