<svg width="24" height="24" viewBox="0 0 24 24" fill="none" xmlns="http://www.w3.org/2000/svg">
<path d="M12.75 11C12.75 10.5858 12.4142 10.25 12 10.25C11.5858 10.25 11.25 10.5858 11.25 11H12.75ZM11.25 17C11.25 17.4142 11.5858 17.75 12 17.75C12.4142 17.75 12.75 17.4142 12.75 17H11.25ZM9 13.25C8.58579 13.25 8.25 13.5858 8.25 14C8.25 14.4142 8.58579 14.75 9 14.75V13.25ZM15 14.75C15.4142 14.75 15.75 14.4142 15.75 14C15.75 13.5858 15.4142 13.25 15 13.25V14.75ZM13.0714 2.52927L13.6028 2.00004C13.4727 1.86935 13.299 1.79121 13.1148 1.78053L13.0714 2.52927ZM19.3494 8.83334L20.0948 8.75031C20.076 8.58166 20.0006 8.42435 19.8809 8.30411L19.3494 8.83334ZM11.25 11V14H12.75V11H11.25ZM11.25 14V17H12.75V14H11.25ZM9 14.75H12V13.25H9V14.75ZM12 14.75H15V13.25H12V14.75ZM9 14.75H15V13.25H9V14.75ZM12.3214 2.52927V6.83334H13.8214V2.52927H12.3214ZM15.0714 9.58334H19.3494V8.08334H15.0714V9.58334ZM12.3214 6.83334C12.3214 8.35212 13.5526 9.58334 15.0714 9.58334V8.08334C14.3811 8.08334 13.8214 7.5237 13.8214 6.83334H12.3214ZM5.25 12C5.25 8.37353 5.70337 6.23757 6.68793 4.99047C7.62634 3.80182 9.19799 3.25 12 3.25V1.75C9.06672 1.75 6.88837 2.31583 5.5106 4.061C4.17898 5.74772 3.75 8.36176 3.75 12H5.25ZM12 20.75C9.19799 20.75 7.62634 20.1982 6.68793 19.0095C5.70337 17.7624 5.25 15.6265 5.25 12H3.75C3.75 15.6382 4.17898 18.2523 5.5106 19.939C6.88837 21.6842 9.06672 22.25 12 22.25V20.75ZM18.75 12C18.75 15.6265 18.2966 17.7624 17.3121 19.0095C16.3737 20.1982 14.802 20.75 12 20.75V22.25C14.9333 22.25 17.1116 21.6842 18.4894 19.939C19.821 18.2523 20.25 15.6382 20.25 12H18.75ZM12 3.25C12.3612 3.25 12.7035 3.25919 13.028 3.27801L13.1148 1.78053C12.7579 1.75982 12.3864 1.75 12 1.75V3.25ZM18.604 8.91637C18.7036 9.81058 18.75 10.833 18.75 12H20.25C20.25 10.7962 20.2023 9.71557 20.0948 8.75031L18.604 8.91637ZM12.54 3.0585L18.818 9.36257L19.8809 8.30411L13.6028 2.00004L12.54 3.0585Z" fill="#001A72"/>
</svg>
