<svg width="24" height="24" viewBox="0 0 24 24" fill="none" xmlns="http://www.w3.org/2000/svg">
<path d="M14 3.25C13.5858 3.25 13.25 3.58579 13.25 4C13.25 4.41421 13.5858 4.75 14 4.75V3.25ZM17.5 4V4.75V4ZM17.5 20V20.75V20ZM14 19.25C13.5858 19.25 13.25 19.5858 13.25 20C13.25 20.4142 13.5858 20.75 14 20.75V19.25ZM3 12L2.46967 11.4697C2.32902 11.6103 2.25 11.8011 2.25 12C2.25 12.1989 2.32902 12.3897 2.46967 12.5303L3 12ZM15 12.75C15.4142 12.75 15.75 12.4142 15.75 12C15.75 11.5858 15.4142 11.25 15 11.25V12.75ZM7.53033 8.53033C7.82322 8.23744 7.82322 7.76256 7.53033 7.46967C7.23744 7.17678 6.76256 7.17678 6.46967 7.46967L7.53033 8.53033ZM6.46967 16.5303C6.76256 16.8232 7.23744 16.8232 7.53033 16.5303C7.82322 16.2374 7.82322 15.7626 7.53033 15.4697L6.46967 16.5303ZM14 4.75L17.5 4.75V3.25L14 3.25V4.75ZM17.5 19.25H14V20.75H17.5V19.25ZM17.5 4.75C18.0809 4.75 18.4501 4.93116 18.7205 5.20982C19.0145 5.51273 19.25 5.99251 19.4182 6.6786C19.7593 8.06959 19.75 9.96116 19.75 12H21.25C21.25 10.0388 21.2696 7.93041 20.8751 6.3214C20.6755 5.50749 20.3522 4.73727 19.7969 4.16518C19.2182 3.56884 18.4479 3.25 17.5 3.25V4.75ZM19.75 12C19.75 14.0388 19.7593 15.9304 19.4182 17.3214C19.25 18.0075 19.0145 18.4873 18.7205 18.7902C18.4501 19.0688 18.0809 19.25 17.5 19.25V20.75C18.4479 20.75 19.2182 20.4312 19.797 19.8348C20.3522 19.2627 20.6755 18.4925 20.8751 17.6786C21.2696 16.0696 21.25 13.9612 21.25 12H19.75ZM3 12.75L15 12.75V11.25L3 11.25L3 12.75ZM6.46967 7.46967L2.46967 11.4697L3.53033 12.5303L7.53033 8.53033L6.46967 7.46967ZM2.46967 12.5303L6.46967 16.5303L7.53033 15.4697L3.53033 11.4697L2.46967 12.5303Z" fill="#001A72"/>
</svg>
