<svg width="24" height="24" viewBox="0 0 24 24" fill="none" xmlns="http://www.w3.org/2000/svg">
  <path d="M7 16.4939H7.75C7.75 16.1571 7.52541 15.8615 7.20085 15.7713L7 16.4939ZM11.0124 16.9876L11.032 16.2379C10.8264 16.2325 10.6275 16.3118 10.482 16.4573L11.0124 16.9876ZM7 21H6.25C6.25 21.3034 6.43273 21.5769 6.71299 21.6929C6.99325 21.809 7.31583 21.7449 7.53033 21.5304L7 21ZM3.75 10C3.75 7.39218 4.27098 5.9469 5.37957 5.08466C6.55039 4.17403 8.56373 3.75 12 3.75V2.25C8.55392 2.25 6.06726 2.6495 4.45866 3.90063C2.78785 5.20016 2.25 7.25488 2.25 10H3.75ZM20.25 10C20.25 12.6078 19.729 14.0531 18.6204 14.9153C17.4496 15.826 15.4363 16.25 12 16.25V17.75C15.4461 17.75 17.9327 17.3505 19.5413 16.0994C21.2122 14.7998 21.75 12.7451 21.75 10H20.25ZM12 3.75C15.4363 3.75 17.4496 4.17403 18.6204 5.08466C19.729 5.9469 20.25 7.39218 20.25 10H21.75C21.75 7.25488 21.2122 5.20016 19.5413 3.90063C17.9327 2.6495 15.4461 2.25 12 2.25V3.75ZM7.20085 15.7713C5.85144 15.3963 5.03714 14.8019 4.53116 13.9549C4.00512 13.0743 3.75 11.8192 3.75 10H2.25C2.25 11.9191 2.51128 13.4986 3.24344 14.7242C3.99566 15.9834 5.18136 16.7669 6.79915 17.2165L7.20085 15.7713ZM12 16.25C11.6651 16.25 11.3426 16.246 11.032 16.2379L10.9927 17.7374C11.3176 17.7459 11.6533 17.75 12 17.75V16.25ZM6.25 16.4939V21H7.75V16.4939H6.25ZM7.53033 21.5304L11.5427 17.518L10.482 16.4573L6.46967 20.4697L7.53033 21.5304Z" fill="#9ca3af" />
</svg>