<svg width="24" height="24" viewBox="0 0 24 24" fill="none" xmlns="http://www.w3.org/2000/svg">
  <path d="M3.75 3C3.75 2.58579 3.41421 2.25 3 2.25C2.58579 2.25 2.25 2.58579 2.25 3H3.75ZM3 9H2.25C2.25 9.41421 2.58579 9.75 3 9.75V9ZM9 9.75C9.41421 9.75 9.75 9.41421 9.75 9C9.75 8.58579 9.41421 8.25 9 8.25V9.75ZM19.5294 9.6283C19.6987 10.0063 20.1424 10.1756 20.5205 10.0063C20.8985 9.83697 21.0677 9.39326 20.8984 9.01523L19.5294 9.6283ZM16.3539 5.12343L16.7167 4.46704L16.3539 5.12343ZM10.7453 4.08779L10.8498 4.83047L10.7453 4.08779ZM20.25 21C20.25 21.4142 20.5858 21.75 21 21.75C21.4142 21.75 21.75 21.4142 21.75 21H20.25ZM21 15H21.75C21.75 14.5858 21.4142 14.25 21 14.25V15ZM15 14.25C14.5858 14.25 14.25 14.5858 14.25 15C14.25 15.4142 14.5858 15.75 15 15.75V14.25ZM4.47054 14.3717C4.30124 13.9936 3.85754 13.8244 3.4795 13.9937C3.10147 14.163 2.93225 14.6067 3.10155 14.9848L4.47054 14.3717ZM13.2547 19.9122L13.3591 20.6549L13.2547 19.9122ZM2.25 3V9H3.75V3H2.25ZM3 9.75H9V8.25H3V9.75ZM20.8984 9.01523C20.0344 7.08596 18.5668 5.48973 16.7167 4.46704L15.991 5.77983C17.5565 6.64519 18.7984 7.99586 19.5294 9.6283L20.8984 9.01523ZM16.7167 4.46704C14.8666 3.44435 12.7342 3.0506 10.6408 3.3451L10.8498 4.83047C12.6212 4.58127 14.4255 4.91446 15.991 5.77983L16.7167 4.46704ZM10.6408 3.3451C7.0935 3.84416 4.73416 6.4361 2.49909 8.4418L3.50091 9.5582C5.92072 7.38671 7.87224 5.24937 10.8498 4.83047L10.6408 3.3451ZM21.75 21V15H20.25V21H21.75ZM21 14.25H15V15.75H21V14.25ZM3.10155 14.9848C3.96553 16.914 5.43315 18.5103 7.28327 19.5329L8.00894 18.2202C6.44343 17.3548 5.2016 16.0041 4.47054 14.3717L3.10155 14.9848ZM7.28327 19.5329C9.13338 20.5556 11.2658 20.9494 13.3591 20.6549L13.1502 19.1695C11.3788 19.4187 9.57445 19.0855 8.00894 18.2202L7.28327 19.5329ZM13.3591 20.6549C16.9065 20.1558 19.2658 17.5639 21.5009 15.5582L20.4991 14.4418C18.0793 16.6133 16.1277 18.7506 13.1502 19.1695L13.3591 20.6549Z" fill="#9ca3af" />
</svg>