<?xml version="1.0" ?><svg viewBox="0 0 512 512" xmlns="http://www.w3.org/2000/svg"><path d="M64.19,191.66c2,7.15,9.5,24.23,36.68,42.15,1.06,7.61,6.61,24.6,34.18,39.49a57.58,57.58,0,0,0,7.24,3.21c9.78,17.3,22.6,28.26,38.33,32.21A59,59,0,0,0,203,309.78C191.22,323.57,180.74,343,185.07,366c7.72,41.13,45.74,53.45,47.36,54a6.15,6.15,0,0,0,1.85.28,6.21,6.21,0,0,0,5.27-9.51c-1.26-2.07-30.44-52,44.24-114.11,83.22-69.2,120-74.62,144.92-70.81,25.37,3.88,29.13,30.92,28.72,34.43a6.48,6.48,0,0,0,3.67,6.62,6.11,6.11,0,0,0,7.19-1.47c.42-.51,42.17-50.79,1.55-108.2-44.67-63.13-118.55-43-218-7.59-92.9,33-187.52-18.38-212.19-55.18a6.4,6.4,0,0,0-5.95-2.71,6.23,6.23,0,0,0-5.09,4.11C28.34,96.56,6.76,160.91,64.19,191.66Zm-26.66-80c35.36,38,127.92,81.87,218.44,49.7,97.26-34.59,164-53.07,203.72,3,23.83,33.69,15.43,63.86,7.21,80.19a53.71,53.71,0,0,0-6.37-12.53,43.63,43.63,0,0,0-29.94-18.51c-29.1-4.45-68,1.38-154.75,73.54-58,48.22-58.16,92.06-52.76,114.5-9.79-6.38-22.08-18.1-25.79-37.85-6.62-35.26,32.17-62.1,37.17-65.4l.71-.46a6.22,6.22,0,0,0-6.75-10.45l-.65.42c-3.35,2.07-23.78,13.92-44.2,8.78-9-2.29-16.92-7.83-23.69-16.18,2.94.29,5.91.43,8.88.43,33.07,0,66.4-16.33,68.29-17.26a6.22,6.22,0,0,0-5.54-11.14c-.56.28-57.1,27.9-90.56,9.86-12.74-6.88-19.5-13.79-23.26-19.44,10.3,3.94,22.5,5.59,35.41,5.59,44.8,0,97.14-18.49,100.11-19.56A6.22,6.22,0,0,0,249,217.23c-.93.33-94.44,33.37-132.84,11.43-19.35-11.06-29.43-21.78-34.7-29.6,44.92,15.06,134,22.69,189.13-8.11a6.22,6.22,0,1,0-6.07-10.86c-52.69,29.48-139.34,21.27-181.31,6.48C35.1,169.59,34.41,131.14,37.53,111.66Z"/></svg>